<?xml version="1.0" encoding="utf-8"?>
<!-- Generator: Adobe Illustrator 15.0.0, SVG Export Plug-In . SVG Version: 6.00 Build 0)  -->
<!DOCTYPE svg PUBLIC "-//W3C//DTD SVG 1.1//EN" "http://www.w3.org/Graphics/SVG/1.1/DTD/svg11.dtd">
<svg version="1.1" id="Layer_1" xmlns="http://www.w3.org/2000/svg" xmlns:xlink="http://www.w3.org/1999/xlink" x="0px" y="0px"
	 width="24px" height="24px" viewBox="0 0 24 24" enable-background="new 0 0 24 24" xml:space="preserve">
<path fill="#00C4B3" d="M11.416,4.409c0.004,0.005,0.007,0.011,0.01,0.016C11.423,4.419,11.42,4.414,11.416,4.409"/>
<path fill="#00C4B3" d="M19.794,9.656c0,0.01,0.013,0.022,0.021,0.032c0,0.06,0.011,0.117,0.014,0.167
	c0-0.05-0.01-0.108-0.014-0.167C19.814,9.678,19.803,9.666,19.794,9.656"/>
<path fill="#00C4B3" d="M6.356,17.805l0.157,0.016c0,0.007,0,0.013,0,0.019c0-0.006,0-0.012,0-0.019L6.356,17.805"/>
<path fill="#00C4B3" d="M11.416,4.409L11.416,4.409V4.391V4.409"/>
<path fill="#00C4B3" d="M19.564,16.148c0.004,0.041-0.015,0.08-0.049,0.103c-0.021,0.019-0.031,0.042-0.033,0.067
	c0,0.025,0,0.063-0.023,0.072c-0.043,0.03-0.066,0.082-0.063,0.135c0,0.029-0.03,0.041-0.049,0.058
	c-0.018,0.017-0.021,0.045,0,0.063c0.021,0.021,0.043,0.033,0.043,0.063v0.145c-0.014,0.028-0.043,0.047-0.074,0.045
	c-0.039,0.004-0.074,0.023-0.096,0.056c-0.035,0.041-0.08,0.067-0.076,0.13c0,0.027-0.019,0.047-0.037,0.063
	c-0.021,0.02-0.035,0.035-0.031,0.049c0.01,0.08-0.057,0.113-0.096,0.162c-0.037,0.047-0.058,0.051-0.08,0.084
	c-0.021,0.025-0.051,0.041-0.084,0.041s-0.063,0.017-0.086,0.043c-0.037,0.041-0.082,0.08-0.121,0.123
	c-0.039,0.041-0.033,0.031-0.033,0.045c0,0.092-0.076,0.129-0.12,0.199c0,0-0.022,0.012-0.03,0.021
	c-0.041,0.043-0.078,0.086-0.119,0.13c-0.006,0.002-0.012,0.002-0.017,0l-0.179,0.011h-0.119c-0.033-0.004-0.064,0.014-0.082,0.043
	c-0.014,0.021-0.039,0.036-0.064,0.039c-0.048,0-0.09,0.023-0.117,0.061c-0.016,0.015-0.031,0.023-0.051,0.027
	c-0.025,0-0.062,0-0.072,0.021c-0.037,0.049-0.101,0.071-0.16,0.06c-0.062,0-0.117,0.029-0.15,0.08h-0.136
	c-0.032,0.006-0.062,0.021-0.08,0.051c-0.036,0.037-0.097,0.039-0.136,0.004c-0.002-0.002-0.002-0.002-0.004-0.004
	c-0.032-0.043-0.084-0.064-0.138-0.061h-0.598c-0.046,0.005-0.093-0.016-0.119-0.055c-0.021-0.018-0.045-0.027-0.069-0.027
	c-0.074,0-0.146,0-0.22,0h-0.514c-0.04,0.003-0.079-0.016-0.104-0.046c-0.023-0.022-0.059-0.033-0.091-0.031h-0.276h-0.147
	c-0.011-0.003-0.019-0.007-0.024-0.012c-0.08-0.078-0.154-0.16-0.238-0.229h-0.316h-0.175l-0.212-0.199
	c-0.016-0.012-0.033-0.033-0.047-0.031c-0.094,0-0.129-0.077-0.198-0.117c-0.013-0.05-0.073-0.057-0.093-0.1
	c-0.021-0.045-0.043-0.029-0.067-0.031c-0.04,0.002-0.076-0.018-0.097-0.053c-0.018-0.021-0.045-0.034-0.071-0.031h-0.077h-0.061
	c-0.034-0.049-0.088-0.079-0.148-0.083c-0.027-0.003-0.049-0.026-0.05-0.054c0-0.049-0.021-0.092-0.058-0.121
	c-0.017-0.01-0.026-0.028-0.028-0.047c0-0.055-0.028-0.104-0.073-0.133c-0.011,0-0.012-0.022-0.021-0.031l-0.142-0.129
	c0-0.074-0.01-0.146-0.012-0.217c0-0.033,0-0.066,0-0.101c0-0.019,0.007-0.037,0.02-0.052c0.047-0.026,0.072-0.082,0.06-0.135
	v-0.082c0.046-0.056,0.096-0.105,0.149-0.154c0.049-0.043,0.09-0.092,0.143-0.145h0.211c0.033,0,0.064,0.018,0.081,0.047
	c0.015,0.022,0.041,0.035,0.069,0.033h0.135c0.035,0.051,0.094,0.078,0.154,0.074c0.065,0,0.131,0,0.199,0
	c0.04-0.003,0.079,0.016,0.102,0.047c0.017,0.021,0.041,0.034,0.068,0.035c0.02,0.002,0.038,0.002,0.059,0
	c0.063-0.007,0.121,0.025,0.152,0.082c0.043,0,0.088,0,0.135,0c0.025,0.001,0.051,0.011,0.07,0.025
	c0.023,0.031,0.063,0.049,0.102,0.049h0.796c0.034,0,0.071,0,0.092-0.025c0.03-0.037,0.075-0.057,0.122-0.052h0.177
	c0.058,0,0.104,0,0.138-0.06c0-0.017,0.047-0.024,0.069-0.029c0.04-0.002,0.078-0.02,0.101-0.055
	c0.02-0.031,0.058-0.045,0.092-0.033h0.257c0.026,0.002,0.053-0.01,0.067-0.03c0.023-0.032,0.063-0.05,0.104-0.048h0.157
	c0.027,0.005,0.054-0.01,0.066-0.032c0.02-0.028,0.051-0.046,0.084-0.045h0.178c0.025,0.002,0.053-0.011,0.066-0.032
	c0.022-0.035,0.063-0.053,0.103-0.048h0.311c0.056,0,0.072-0.013,0.078-0.065c0.001-0.045,0.024-0.088,0.065-0.111
	c0.021-0.018,0.037-0.038,0.052-0.059h0.14c0.033,0,0.063-0.018,0.082-0.045c0.02-0.031,0.057-0.031,0.088-0.033
	c0.026,0,0.053-0.016,0.066-0.037c0.018-0.028,0.047-0.047,0.08-0.047c0.033,0.006,0.066-0.008,0.087-0.035
	c0.022-0.035,0.063-0.055,0.103-0.049h0.219c0.037,0.004,0.076-0.015,0.101-0.047c0.022-0.031,0.058-0.029,0.089-0.033
	c0.026-0.002,0.053-0.017,0.067-0.037c0.016-0.029,0.047-0.049,0.081-0.049c0.063,0,0.09-0.045,0.137-0.082h0.109
	c0.041,0.004,0.08-0.013,0.104-0.045c0.016-0.021,0.042-0.033,0.069-0.029h0.176c0.026,0,0.052,0.014,0.065,0.035
	c0.019,0.02,0.035,0.037,0.058,0.053c0.021,0.015,0.021,0.043,0.006,0.063c-0.002,0.002-0.003,0.004-0.006,0.006
	c-0.011,0.006-0.021,0.015-0.028,0.023c-0.016,0.014-0.017,0.036-0.002,0.051c0,0,0,0.002,0.002,0.002
	c0.037,0.022,0.063,0.066,0.061,0.112c0,0.019,0.008,0.038,0.021,0.052c0.041,0.024,0.063,0.07,0.061,0.118c0,0.21,0,0.422,0,0.631
	 M16.904,20.709c-0.037,0.029-0.057,0.076-0.051,0.122c0,0.058,0,0.118,0,0.173l-0.258,0.243c0,0.067,0,0.134,0,0.198
	c0,0.066-0.013,0.07-0.084,0.084c-0.031,0-0.064,0-0.082,0.045c-0.019,0.043-0.084,0.06-0.082,0.127
	c0.002,0.066-0.012,0.063-0.068,0.074h-0.021c-0.031,0.004-0.063,0.021-0.08,0.049c-0.043,0.054-0.099,0.1-0.148,0.15
	c0,0-0.016,0.022-0.027,0.026c-0.037,0.009-0.075,0.019-0.111,0.032c-0.033,0.017-0.05,0.061-0.092,0.068
	c-0.061,0.008-0.115,0.039-0.152,0.086h-0.211c-0.027,0-0.054,0.013-0.069,0.033c-0.021,0.025-0.052,0.043-0.084,0.045
	c-0.025,0-0.062,0-0.071,0.025c-0.038,0.063-0.098,0.061-0.154,0.061c-0.048-0.008-0.095,0.014-0.121,0.053
	c-0.016,0.021-0.041,0.033-0.068,0.027c-0.061,0-0.117,0-0.178,0c-0.021,0.002-0.039,0.008-0.055,0.021
	c-0.029,0.043-0.084,0.064-0.138,0.056h-0.144c-0.02-0.001-0.039-0.008-0.054-0.021c-0.063-0.094-0.153-0.053-0.233-0.047
	c0,0-0.02,0.02-0.028,0.027l-0.046,0.033c-0.039-0.04-0.074-0.079-0.137-0.072c-0.024,0-0.053,0-0.08,0h-0.197
	c-0.051,0.041-0.098,0.086-0.139,0.133c-0.02,0.021-0.049,0-0.058-0.023c-0.003-0.032-0.011-0.064-0.021-0.096
	c-0.024-0.028-0.061-0.047-0.082-0.08c-0.022-0.034-0.036-0.018-0.055-0.02c-0.052,0-0.105,0-0.16,0
	c-0.045,0-0.088-0.021-0.116-0.059c-0.037-0.04-0.099-0.041-0.138-0.004c-0.002,0.002-0.002,0.003-0.004,0.004
	c-0.027,0.035-0.072,0.059-0.119,0.054c-0.025,0.002-0.053,0.002-0.078,0c-0.02-0.003-0.037-0.014-0.049-0.028
	c-0.021-0.035-0.061-0.055-0.101-0.054c-0.019,0-0.037-0.008-0.052-0.021c-0.042-0.059-0.099-0.057-0.159-0.059
	c-0.089,0-0.089,0-0.108-0.102c0-0.037-0.021-0.063-0.06-0.067c-0.037-0.004-0.091,0-0.121-0.052
	c-0.013-0.016-0.03-0.023-0.05-0.027c-0.046,0-0.09-0.023-0.117-0.061c-0.034-0.047-0.088-0.078-0.124-0.121
	c-0.028-0.045-0.078-0.072-0.131-0.07c-0.02,0-0.038-0.009-0.052-0.021c-0.019-0.025-0.042-0.051-0.065-0.07
	c-0.016-0.029-0.024-0.061-0.026-0.094c-0.004-0.026-0.024-0.047-0.05-0.053l-0.096-0.021c-0.026-0.047-0.078-0.074-0.132-0.068
	c-0.016,0-0.031-0.021-0.045-0.035c-0.014-0.014-0.036-0.043-0.064-0.041c-0.069,0-0.102-0.051-0.147-0.086
	c-0.027-0.02-0.043-0.051-0.044-0.082c0-0.033-0.014-0.064-0.04-0.086c-0.034-0.031-0.068-0.061-0.1-0.095
	c-0.028-0.036-0.061-0.067-0.098-0.096c0-0.043-0.009-0.091-0.012-0.136c0.002-0.041-0.02-0.078-0.056-0.096
	c-0.034-0.018-0.044-0.063-0.078-0.086c-0.039-0.035-0.041-0.097-0.004-0.136c0.001-0.001,0.003-0.003,0.004-0.004
	c0.031-0.024,0.049-0.062,0.05-0.101c-0.002-0.025,0.01-0.053,0.033-0.067c0.034-0.021,0.053-0.062,0.048-0.101
	c0-0.133,0-0.267,0-0.398c0-0.023,0-0.063,0.022-0.072c0.041-0.021,0.064-0.066,0.062-0.113c0.003-0.025,0.018-0.051,0.04-0.064
	c0.015-0.014,0.026-0.027,0.032-0.049c0.01-0.049,0-0.106,0.068-0.131c0.028-0.045,0.078-0.073,0.131-0.073
	c0.036,0,0.054-0.031,0.058-0.07c-0.003-0.045,0.003-0.091,0.016-0.135c0.022-0.048,0.057-0.088,0.102-0.115
	c0.042-0.024,0.058-0.069,0.094-0.098s0.082-0.084,0.147-0.078c0.019-0.003,0.037-0.013,0.049-0.028
	c0.032-0.031,0.06-0.064,0.089-0.099c0.031-0.033,0.044-0.026,0.078,0c0.034,0.028,0.016,0.022,0.026,0.028
	c0.042,0.029,0.105,0,0.142,0.056c0.026,0.036,0.059,0.067,0.095,0.095c0.016,0.012,0.033,0.02,0.052,0.023l0.082,0.016
	c0,0.023,0.014,0.051,0.02,0.075c0.006,0.022,0,0.03,0,0.04c0.052,0.045,0.083,0.119,0.167,0.119c0.02,0,0.039,0.007,0.054,0.02
	c0.029,0.045,0.08,0.071,0.133,0.07c0.019,0.003,0.036,0.014,0.046,0.029c0.016,0.029,0.046,0.047,0.079,0.05
	c0.04,0,0.077,0.021,0.099,0.053c0.037,0.038,0.076,0.075,0.118,0.108H12.8c0.026,0,0.052,0.013,0.068,0.033
	c0.017,0.028,0.048,0.047,0.082,0.047c0.038-0.002,0.079-0.002,0.116,0c0.021,0.004,0.039,0.015,0.051,0.029
	c0.023,0.041,0.063,0.043,0.104,0.047c0.038,0.004,0.045,0,0.051,0.024c0.021,0.041,0.068,0.063,0.115,0.058h0.077
	c0.027,0,0.052,0.016,0.065,0.039c0.029,0.033,0.062,0.064,0.096,0.094c0.016,0.014,0.032,0.021,0.053,0.024
	c0.047-0.003,0.092,0.021,0.115,0.06c0.016,0.015,0.032,0.021,0.053,0.021c0.064,0,0.131,0,0.198,0c0.026,0,0.052,0.016,0.065,0.037
	c0.023,0.029,0.052,0.059,0.08,0.083c0.039,0.047,0.111,0.052,0.16,0.011c0.004-0.003,0.008-0.007,0.01-0.011
	c0.035-0.026,0.037-0.028,0.078,0c0.019,0.019,0.043,0.028,0.069,0.03h0.245c0.078-0.008,0.156-0.008,0.234,0
	c0.013,0.008,0.022,0.017,0.031,0.027c0.019,0.027,0.047,0.045,0.08,0.047h0.139c0.055-0.008,0.107,0.018,0.135,0.064
	c0.014,0.014,0.031,0.02,0.052,0.02c0.079,0,0.159,0,0.236,0h0.337c0.048-0.002,0.092,0.02,0.122,0.056
	c0.034,0.034,0.09,0.034,0.126,0c0.029-0.034,0.072-0.054,0.119-0.054h0.455c0.07,0,0.1,0.021,0.1,0.092c0,0.105,0,0.211,0,0.316
	c0.004,0.026-0.007,0.053-0.025,0.071 M21.732,9.662c-0.012-0.008-0.018-0.019-0.021-0.031c-0.002-0.013-0.002-0.027,0-0.04
	c0-0.07,0.012-0.147-0.068-0.199c-0.014,0-0.016-0.034-0.018-0.054c-0.001-0.033-0.016-0.063-0.04-0.085
	c-0.026-0.02-0.04-0.056-0.065-0.072c-0.039-0.025-0.063-0.069-0.062-0.116c0-0.02-0.011-0.038-0.026-0.05
	c-0.048-0.018-0.054-0.075-0.096-0.095S21.305,8.88,21.3,8.854c-0.004-0.026,0-0.07-0.032-0.087
	c-0.029-0.016-0.049-0.047-0.049-0.08c0-0.026,0-0.052,0-0.077c0-0.026,0-0.048-0.064-0.112c-0.025-0.03-0.045-0.064-0.088-0.066
	c-0.041-0.001-0.076-0.02-0.102-0.052c-0.047-0.034-0.078-0.088-0.084-0.147c-0.001-0.013-0.008-0.025-0.018-0.034
	c-0.028-0.036-0.059-0.069-0.094-0.1c-0.154-0.14-0.289-0.297-0.443-0.433c-0.018-0.044-0.064-0.071-0.111-0.063
	c-0.025-0.001-0.051-0.015-0.066-0.036c-0.022-0.03-0.058-0.054-0.078-0.084c-0.02-0.027-0.051-0.043-0.084-0.042
	C19.953,7.443,19.92,7.428,19.9,7.4c-0.002-0.006-0.006-0.012-0.012-0.016c-0.057-0.051-0.104-0.121-0.199-0.115
	c-0.014-0.001-0.025-0.009-0.033-0.02c-0.021-0.042-0.066-0.067-0.113-0.063c-0.047,0-0.061-0.049-0.092-0.07
	c-0.031-0.02-0.1,0-0.126-0.043c-0.021-0.034-0.062-0.052-0.101-0.047c-0.033,0.001-0.066,0.001-0.1,0
	c-0.018-0.004-0.035-0.015-0.047-0.03c-0.02-0.028-0.049-0.045-0.082-0.048c-0.041,0-0.079,0-0.119,0
	c-0.02-0.003-0.035-0.014-0.046-0.029c-0.019-0.029-0.049-0.046-0.082-0.048c-0.033,0.005-0.065-0.007-0.089-0.032
	c-0.02-0.028-0.049-0.046-0.082-0.046h-0.215c-0.029-0.053-0.09-0.084-0.15-0.08c-0.119,0-0.238,0-0.355,0
	c-0.047,0.005-0.092-0.016-0.119-0.054c-0.014-0.014-0.032-0.023-0.053-0.026c-0.019-0.002-0.039-0.002-0.057,0H16.38
	c-0.021-0.003-0.039-0.003-0.06,0c-0.018,0.003-0.035,0.012-0.049,0.026c-0.021,0.034-0.06,0.054-0.101,0.05h-0.597
	c-0.061,0-0.119,0-0.155-0.06c0-0.014-0.036-0.02-0.054-0.02H15.13c-0.046-0.004-0.092,0.017-0.118,0.056
	C15,6.701,14.98,6.71,14.961,6.709c-0.063,0-0.094,0.036-0.133,0.082c-0.08,0-0.166,0-0.251,0h-0.22
	c-0.027-0.002-0.053,0.01-0.067,0.032c-0.019,0.029-0.05,0.046-0.084,0.043h-0.179c-0.032,0-0.063,0.017-0.08,0.046
	c-0.021,0.026-0.055,0.039-0.09,0.034h-0.334c-0.026,0-0.053,0.015-0.066,0.038C13.447,7,13.432,7.012,13.414,7.018
	c-0.051,0.012-0.104,0.014-0.137,0.068C13.27,7.095,13.257,7.1,13.244,7.1c-0.078,0.012-0.158,0.012-0.236,0
	c-0.012,0-0.027-0.038-0.02-0.045c0.044-0.032,0.066-0.084,0.061-0.138c0-0.074,0-0.146,0-0.219c0-0.033,0.016-0.064,0.043-0.082
	c0.028-0.02,0.043-0.054,0.039-0.087V5.895c0.002-0.046-0.02-0.09-0.059-0.116c-0.018-0.012-0.02-0.045-0.021-0.071
	c-0.002-0.033,0.014-0.065,0.04-0.084c0.036-0.03,0.031-0.036,0-0.074c-0.032-0.038-0.028-0.029-0.032-0.046
	c0-0.078,0-0.157,0-0.236c-0.004-0.037,0-0.073,0.014-0.108l0.117-0.115c0.041-0.039,0.045-0.104,0.006-0.146
	c-0.002-0.003-0.004-0.005-0.006-0.007c-0.021-0.015-0.037-0.038-0.041-0.063c0-0.06,0-0.12,0-0.179
	c-0.004-0.04,0.018-0.079,0.051-0.1c0.021-0.014,0.025-0.046,0.027-0.072V4.16c0-0.086,0-0.172,0-0.257
	c0.002-0.026-0.006-0.052-0.023-0.072c-0.037-0.027-0.059-0.073-0.053-0.119V3c0-0.013,0-0.027,0-0.04
	c0.002-0.027,0.021-0.051,0.045-0.062c0.016-0.009,0.021-0.03,0.013-0.046c0,0,0-0.001-0.001-0.002
	c-0.025-0.037-0.059-0.071-0.094-0.099c-0.027-0.017-0.045-0.047-0.047-0.08c0-0.06,0-0.119,0-0.177
	c0-0.034-0.018-0.065-0.045-0.083C13,2.394,12.986,2.369,12.984,2.342c0.002-0.04,0.002-0.078,0-0.118
	c-0.002-0.019-0.01-0.038-0.023-0.052c-0.033-0.023-0.053-0.061-0.052-0.102c0-0.033-0.021-0.063-0.05-0.078
	c-0.021-0.016-0.034-0.041-0.034-0.068c0-0.04-0.021-0.077-0.054-0.099c-0.03-0.025-0.058-0.053-0.082-0.082
	C12.67,1.725,12.66,1.7,12.66,1.673c0-0.026,0-0.054-0.028-0.07c-0.131-0.029-0.131-0.029-0.14-0.159c0-0.014,0-0.028,0-0.04
	c0-0.012,0-0.04-0.023-0.052l-0.016-0.011c-0.023-0.033-0.05-0.062-0.08-0.085c-0.05-0.031-0.03-0.084-0.05-0.122
	c-0.02-0.038-0.023-0.03-0.036-0.043c-0.109-0.118-0.225-0.231-0.344-0.341c-0.05-0.085-0.148-0.127-0.2-0.199
	c-0.013-0.015-0.032-0.022-0.051-0.022c-0.048,0-0.092-0.025-0.116-0.065c-0.015-0.012-0.033-0.02-0.052-0.02
	c-0.04,0-0.08,0-0.119,0c-0.02-0.003-0.037-0.012-0.05-0.026c-0.023-0.032-0.061-0.051-0.102-0.049
	c-0.027-0.001-0.051-0.015-0.065-0.038c-0.017-0.028-0.048-0.046-0.082-0.045c-0.06,0-0.119,0-0.177,0
	c-0.026-0.001-0.051-0.012-0.07-0.03c-0.03-0.036-0.075-0.055-0.121-0.052h-0.297c-0.026,0-0.062,0-0.072-0.024
	c-0.033-0.043-0.087-0.063-0.142-0.053H10.05C10.006,0.131,9.959,0.11,9.935,0.07C9.927,0.06,9.916,0.053,9.902,0.05
	C9.817,0.041,9.731,0.018,9.674,0.114C9.642,0.148,9.606,0.179,9.567,0.205h-0.59C8.943,0.251,8.909,0.291,8.85,0.291
	c-0.033,0.002-0.063,0.02-0.083,0.046c-0.034,0.04-0.072,0.076-0.11,0.114C8.63,0.452,8.604,0.456,8.579,0.462
	c-0.02,0.002-0.038,0.012-0.05,0.028C8.508,0.524,8.471,0.545,8.432,0.544c-0.026,0-0.051,0.012-0.068,0.032
	C8.325,0.62,8.284,0.662,8.24,0.701c-0.045,0.042-0.082,0.1-0.159,0.092c-0.016,0-0.034,0.018-0.046,0.032
	c-0.034,0.04-0.07,0.077-0.109,0.112C7.885,0.958,7.86,1.002,7.862,1.048C7.861,1.075,7.847,1.099,7.826,1.116
	c-0.043,0.029-0.08,0.065-0.111,0.107C7.687,1.263,7.641,1.28,7.619,1.32S7.535,1.385,7.513,1.434C7.47,1.454,7.445,1.5,7.451,1.548
	C7.453,1.575,7.439,1.6,7.416,1.613C7.404,1.618,7.393,1.626,7.384,1.635C7.344,1.691,7.273,1.727,7.28,1.814
	c0,0.035-0.047,0.042-0.06,0.072C7.208,1.916,7.203,1.962,7.193,2C7.19,2.005,7.185,2.011,7.179,2.013
	c-0.03,0.014-0.05,0.044-0.052,0.078c0.003,0.04-0.017,0.079-0.051,0.1C7.05,2.213,7.037,2.247,7.042,2.281c0,0.091,0,0.185,0,0.276
	C7.051,2.61,7.03,2.664,6.988,2.696C6.974,2.71,6.966,2.729,6.966,2.749c0.001,0.046-0.022,0.09-0.062,0.115
	C6.878,2.88,6.878,2.909,6.876,2.936c0,0.08,0,0.157,0,0.237C6.878,3.206,6.864,3.238,6.838,3.26C6.81,3.279,6.794,3.31,6.794,3.343
	c-0.002,0.026-0.002,0.052,0,0.078c0,0.041-0.019,0.079-0.052,0.104c-0.013,0.014-0.02,0.031-0.023,0.049
	c-0.002,0.034-0.002,0.067,0,0.1c0,0.125,0,0.251,0,0.373L6.673,4.09c-0.058,0.06-0.137,0.105-0.125,0.2
	C6.532,4.31,6.512,4.327,6.496,4.347C6.482,4.36,6.481,4.381,6.494,4.395c0,0.001,0.001,0.001,0.001,0.002l0.016,0.012
	c0.034,0.034,0.034,0.048,0,0.08c-0.033,0.032-0.044,0.049,0,0.089c0.044,0.04,0.032,0.044,0,0.075
	C6.466,4.689,6.457,4.756,6.493,4.802c0.005,0.007,0.012,0.014,0.019,0.02c0.045,0.036,0.053,0.101,0.017,0.145
	C6.526,4.97,6.524,4.972,6.522,4.975C6.49,4.999,6.471,5.036,6.472,5.076c0,0.045,0,0.092,0,0.137
	C6.469,5.26,6.49,5.305,6.528,5.333c0.036,0.041,0.036,0.101,0,0.142c-0.066,0.08-0.066,0.1,0,0.18
	c0.013,0.014,0.021,0.032,0.024,0.052c0,0.032,0,0.065,0,0.098c0,0.165,0,0.33,0,0.496c0,0.039,0.02,0.076,0.054,0.097
	c0.018,0.012,0.022,0.038,0.01,0.056c-0.003,0.004-0.006,0.007-0.01,0.01C6.58,6.484,6.554,6.502,6.554,6.54
	c-0.005,0.041,0.014,0.08,0.049,0.1c0.038,0.023,0.05,0.077,0.098,0.093c0.018,0.05,0.024,0.103,0.018,0.155c0,0.026,0,0.052,0,0.08
	C6.718,7,6.733,7.032,6.761,7.049c0.021,0.017,0.034,0.043,0.034,0.07c-0.001,0.033,0.014,0.065,0.04,0.085
	c0.032,0.023,0.05,0.063,0.046,0.103c0,0.04,0,0.08,0,0.118C6.872,7.488,6.904,7.549,6.96,7.577c0,0.023,0,0.049,0,0.076
	c0,0.225,0,0.45,0,0.673c0.002,0.02,0.002,0.04,0,0.06c0,0.018-0.012,0.044-0.026,0.052C6.878,8.469,6.876,8.519,6.876,8.573
	c0,0.125,0,0.251,0,0.376c0,0.033-0.016,0.064-0.043,0.083C6.817,9.044,6.797,9.064,6.798,9.079c0,0.08-0.052,0.119-0.093,0.166
	C6.663,9.29,6.62,9.323,6.624,9.391c0,0.016-0.018,0.034-0.03,0.047C6.582,9.453,6.528,9.501,6.496,9.535
	c-0.012,0.014-0.021,0.031-0.023,0.05c0,0.046,0,0.091-0.062,0.114c-0.012,0.006-0.018,0.018-0.018,0.03
	C6.396,9.79,6.364,9.847,6.311,9.875C6.296,9.914,6.256,9.937,6.215,9.931H6.087l-0.074,0.08c-0.028,0.031-0.028,0.036,0,0.079
	c0.028,0.044,0.054,0.11,0,0.157c-0.029,0.035-0.048,0.079-0.054,0.124c-0.005,0.018-0.017,0.034-0.034,0.043
	c-0.054,0.018-0.124,0-0.151,0.076c0,0-0.022,0.012-0.034,0.014H5.62c-0.032,0.003-0.062,0.02-0.082,0.046
	c-0.04,0.038-0.102,0.038-0.142,0c-0.01,0-0.014-0.022-0.023-0.03c-0.012-0.003-0.024-0.003-0.036,0
	c-0.012-0.003-0.023,0.005-0.026,0.017c0,0.002,0,0.004,0,0.006c0,0.04,0,0.08,0,0.118c0.003,0.046-0.002,0.092-0.014,0.137
	c-0.025,0.037-0.056,0.069-0.089,0.098c-0.025,0.021-0.048,0.043-0.07,0.068c-0.013,0.015-0.03,0.024-0.049,0.026
	C5.043,10.994,5,11.016,4.969,11.05c-0.056,0.054-0.11,0.11-0.167,0.164c-0.012,0.015-0.029,0.024-0.048,0.028
	c-0.046,0.001-0.089,0.022-0.119,0.058c-0.03,0.04-0.09,0.016-0.127,0.044c-0.038,0.028-0.017,0.021-0.026,0.03
	c-0.01,0.008-0.03,0.03-0.046,0.032c-0.053,0-0.103,0.012-0.133,0.068c0,0.012-0.035,0.014-0.054,0.02
	c-0.018,0.006-0.062,0-0.073,0.021c-0.032,0.043-0.082,0.068-0.135,0.067c-0.017,0-0.032,0.018-0.044,0.032
	c-0.014,0.023-0.039,0.038-0.065,0.042H3.833c-0.041-0.002-0.079,0.019-0.1,0.054c-0.013,0.015-0.03,0.024-0.05,0.025
	c-0.032,0.002-0.065,0.002-0.098,0c-0.04-0.003-0.078,0.017-0.097,0.052c-0.017,0.026-0.052,0.04-0.07,0.066
	c-0.014,0.022-0.038,0.037-0.064,0.04c-0.04,0-0.079,0-0.117,0c-0.038,0-0.045,0-0.054,0.022c-0.029,0.045-0.082,0.069-0.135,0.06
	H2.882c-0.05,0.026-0.068,0.076-0.124,0.074c-0.056-0.002-0.147,0-0.199,0.067c0,0.012-0.036,0.017-0.056,0.017H2.292
	c-0.038,0.045-0.07,0.09-0.134,0.082H2.121c-0.047-0.004-0.093,0.014-0.124,0.05c-0.024,0.024-0.058,0.035-0.091,0.03
	c-0.08,0-0.157,0-0.237,0c-0.027-0.003-0.054,0.008-0.07,0.03c-0.021,0.034-0.058,0.054-0.097,0.052
	c-0.027,0.001-0.052,0.013-0.07,0.034c-0.029,0.034-0.06,0.067-0.093,0.098c-0.019,0.019-0.043,0.03-0.07,0.032
	c-0.031,0-0.065,0-0.083,0.038s-0.094,0.056-0.087,0.123c0,0.034-0.014,0.065-0.04,0.086c-0.043,0.041-0.046,0.108-0.005,0.151
	c0.002,0.002,0.004,0.004,0.005,0.006c0.029,0.025,0.045,0.063,0.046,0.104v0.12c0,0.065,0,0.131,0,0.199
	c-0.001,0.032,0.013,0.065,0.04,0.088c0.016,0.009,0.029,0.024,0.035,0.043c0.012,0.05,0.01,0.104,0.07,0.132
	c0.012,0,0.019,0.035,0.019,0.055c0,0.078,0,0.156,0,0.229l0.021,0.021l0.054,0.058c0.12,0.116,0.12,0.116,0.271,0.114h0.06
	c0.034,0,0.065-0.017,0.083-0.043c0.015-0.022,0.04-0.037,0.066-0.037h0.179c0.033-0.002,0.064-0.016,0.086-0.039
	c0.034-0.033,0.038-0.032,0.08,0c0.042,0.033,0.054,0.033,0.082,0l0.125-0.129h0.231c0.058,0,0.12,0,0.155-0.061
	c0-0.013,0.034-0.02,0.054-0.021c0.032-0.002,0.065-0.002,0.098,0c0.034,0.002,0.065-0.014,0.084-0.043
	c0.016-0.021,0.041-0.033,0.067-0.031c0.052,0.004,0.104-0.003,0.153-0.018c0.036-0.041,0.074-0.076,0.106-0.115
	c0.016-0.021,0.041-0.033,0.067-0.034c0.04,0,0.078,0,0.1-0.048c0.021-0.049,0.042-0.03,0.069-0.031
	c0.04,0.001,0.077-0.021,0.098-0.055c0.024-0.037,0.072-0.023,0.108-0.035c0.035-0.014,0.056-0.076,0.109-0.076
	c0.046,0,0.09-0.021,0.119-0.059c0.032-0.039,0.092-0.014,0.127-0.045l0.028-0.026c0.014-0.015,0.028-0.031,0.044-0.034
	c0.054,0,0.108-0.011,0.134-0.07c0.023,0,0.049-0.017,0.073-0.021c0.024-0.005,0.056,0,0.07-0.032
	c0.021-0.033,0.061-0.052,0.101-0.048h0.157c0.027,0.001,0.053-0.013,0.068-0.034c0.017-0.029,0.048-0.047,0.082-0.046
	c0.039,0,0.079,0,0.119,0c0.019-0.006,0.035-0.017,0.047-0.032c0.019-0.027,0.049-0.044,0.082-0.046
	c0.053-0.002,0.105-0.002,0.157,0c0.064,0,0.096-0.034,0.132-0.071h0.02c0.058-0.012,0.124,0.015,0.173-0.021
	c0.043-0.04,0.083-0.082,0.12-0.127l0.021-0.014c0.026,0,0.06,0,0.092,0H6.04c0.033,0.002,0.064-0.014,0.083-0.041
	c0.024-0.029,0.06-0.051,0.083-0.082c0.016-0.022,0.04-0.035,0.066-0.036H6.39c0.036,0,0.052-0.02,0.062-0.063
	c0.009-0.043,0.009-0.052,0.014-0.08l0.1-0.021c0.035,0,0.045-0.046,0.071-0.062c0.023-0.013,0.049-0.019,0.076-0.02
	c0.066,0,0.134,0,0.175-0.065c0-0.012,0.034-0.018,0.054-0.018c0.039-0.004,0.074-0.024,0.1-0.054l0.44-0.434l0.173-0.01
	c0.04-0.042,0.078-0.076,0.112-0.116c0.02-0.025,0.051-0.041,0.083-0.042l0.061-0.01c0.089-0.12,0.21-0.206,0.296-0.317
	c0.042-0.021,0.067-0.066,0.063-0.114c-0.001-0.027,0.013-0.053,0.038-0.065c0.046-0.024,0.07-0.072,0.112-0.105
	c0.042-0.034,0.095-0.102,0.149-0.147c0.054-0.046,0.022-0.074,0.031-0.111c0.01-0.038,0.08-0.052,0.078-0.108
	c-0.007-0.041,0.011-0.082,0.043-0.105c0.022-0.016,0.034-0.041,0.034-0.068c0-0.06,0-0.12,0-0.18
	C8.754,10.058,8.771,10.027,8.8,10.01c0.021-0.016,0.035-0.041,0.035-0.068c0-0.052,0-0.105,0-0.157c0-0.052,0-0.092,0.058-0.114
	c0.006-0.004,0.01-0.009,0.012-0.016C8.924,9.606,8.928,9.552,8.919,9.5c0-0.027-0.016-0.052-0.04-0.064
	c-0.027-0.02-0.042-0.051-0.044-0.084c0-0.105,0-0.213,0-0.316C8.841,9.001,8.83,8.967,8.806,8.943
	c-0.04-0.026-0.06-0.072-0.054-0.119V8.39c0.005-0.047-0.014-0.093-0.05-0.124C8.679,8.242,8.668,8.208,8.674,8.174
	c0-0.151,0-0.302,0-0.454C8.68,7.674,8.659,7.628,8.619,7.603C8.605,7.589,8.597,7.57,8.595,7.551c-0.003-0.039-0.003-0.079,0-0.117
	c0-0.03,0.02-0.046,0.038-0.064C8.679,7.337,8.69,7.272,8.657,7.226c-0.006-0.01-0.015-0.018-0.025-0.025
	C8.6,7.169,8.567,7.139,8.535,7.105C8.523,7.09,8.515,7.072,8.513,7.054c0.001-0.047-0.022-0.091-0.062-0.116
	c-0.012,0-0.016-0.034-0.018-0.052c0-0.105,0-0.213,0-0.316C8.439,6.523,8.418,6.477,8.38,6.45C8.365,6.437,8.356,6.419,8.354,6.4
	c-0.002-0.027-0.002-0.053,0-0.08c0.005-0.046-0.017-0.092-0.056-0.118C8.284,6.189,8.275,6.171,8.274,6.151
	c-0.003-0.026-0.003-0.052,0-0.078C8.28,6.027,8.259,5.981,8.22,5.954C8.207,5.94,8.198,5.922,8.198,5.902c0-0.065,0-0.133,0-0.199
	s0-0.158,0-0.237c0.003-0.027-0.009-0.053-0.032-0.068C8.133,5.376,8.115,5.337,8.119,5.297c0-0.113,0-0.225,0-0.336
	c-0.002-0.026-0.016-0.05-0.038-0.066c-0.036-0.035-0.04-0.051,0-0.078c0.03-0.025,0.047-0.062,0.046-0.101
	C8.125,4.688,8.139,4.662,8.163,4.648c0.029-0.016,0.047-0.046,0.046-0.08c0-0.072-0.014-0.147,0.062-0.2
	c0.014,0,0.016-0.035,0.016-0.054c0-0.065,0-0.131,0-0.199V3.742c0-0.028,0-0.058,0.024-0.072C8.35,3.645,8.373,3.6,8.372,3.553
	c0.001-0.019,0.01-0.037,0.024-0.05c0.052-0.026,0.056-0.07,0.056-0.118c0-0.08,0-0.157,0-0.237c0-0.027,0.012-0.052,0.034-0.068
	c0.012,0,0.026-0.016,0.028-0.025c0.005-0.033,0.012-0.064,0.022-0.096c0.018-0.032,0.056-0.056,0.068-0.09
	c0.011-0.034,0-0.105,0.069-0.131c0.008-0.024,0.015-0.048,0.02-0.074c0-0.071,0-0.143,0-0.199c0.066-0.07,0.124-0.134,0.185-0.189
	C8.916,2.249,8.939,2.207,8.942,2.16c0.009-0.013,0.021-0.022,0.036-0.03l0.167-0.165h0.276c0.04,0.002,0.078-0.017,0.1-0.05
	C9.549,1.882,9.582,1.85,9.616,1.822c0.038-0.029,0.09-0.014,0.135-0.018h0.052C9.817,1.79,9.827,1.783,9.835,1.772
	c0.032-0.042,0.087-0.058,0.137-0.04c0.016,0.01,0.026,0.03,0.04,0.044c0.014,0.014,0.04,0.02,0.066,0s0.026-0.038,0.04-0.04
	c0.081,0,0.171-0.042,0.232,0.052c0,0.012,0.034,0.014,0.052,0.02l0.076,0.02c0.025,0.047,0.076,0.074,0.129,0.068
	c0.021,0,0.04,0.011,0.05,0.03c0.012,0.024,0.035,0.041,0.062,0.042c0.048,0,0.092,0,0.113,0.06
	c0.142,0.125,0.271,0.261,0.398,0.398v0.153c0,0.131,0,0.262,0,0.398c0,0.04,0.016,0.058,0.062,0.062s0.102,0.02,0.1,0.092
	c0,0.033,0.018,0.063,0.048,0.079c0.014,0.013,0.024,0.031,0.026,0.05c0.003,0.046,0.003,0.093,0,0.14
	c-0.003,0.019-0.013,0.036-0.028,0.048c-0.033,0.024-0.051,0.063-0.048,0.104c0,0.157,0,0.316,0,0.476
	c-0.003,0.013-0.003,0.025,0,0.038c0.006,0.018,0.017,0.034,0.03,0.045c0.026,0.021,0.042,0.053,0.042,0.086v0.1
	c-0.001,0.033-0.019,0.064-0.048,0.08c-0.003,0.005-0.007,0.01-0.01,0.016v0.016c0.002,0.006,0.006,0.013,0.01,0.018
	c0.003,0.006,0.007,0.01,0.012,0.014c0.027,0.019,0.043,0.05,0.042,0.083c0,0.034,0,0.068,0,0.1c0,0.031,0,0.043-0.02,0.052
	c-0.042,0.032-0.064,0.085-0.058,0.138c0,0.113,0,0.225,0,0.336c-0.008,0.054,0.013,0.107,0.056,0.14
	c0.014,0,0.02,0.034,0.022,0.052c0,0.08,0,0.159,0,0.239c0.006,0.046-0.016,0.092-0.056,0.117C11.39,5.709,11.39,5.741,11.39,5.769
	c0,0.151,0,0.303,0,0.454c0.008,0.053-0.014,0.106-0.055,0.139c-0.018,0.019-0.026,0.044-0.024,0.07c0,0.23,0,0.462,0,0.693
	c0,0.082,0.028,0.175-0.066,0.233c-0.01,0-0.012,0.038-0.014,0.056c0,0.074,0,0.146,0,0.219c0,0.073,0,0.183,0,0.277
	c0.004,0.026-0.005,0.053-0.026,0.069c-0.034,0.022-0.053,0.062-0.049,0.102c0,0.08,0,0.157,0,0.237
	c0.002,0.033-0.013,0.066-0.04,0.085c-0.023,0.014-0.038,0.039-0.04,0.066c0,0.026,0,0.051,0,0.078v1.03
	c-0.002,0.026-0.002,0.053,0,0.079c0,0.018,0,0.046,0.02,0.054c0.054,0.031,0.06,0.082,0.067,0.134
	c0.001,0.02,0.018,0.036,0.038,0.038c0.04,0.003,0.08,0.003,0.12,0h0.554c0.052,0.004,0.104,0,0.155-0.014
	c0.043-0.028,0.082-0.063,0.113-0.104c0,0,0-0.014,0.01-0.016c0.016-0.011,0.034-0.02,0.052-0.024c0.047,0,0.093,0,0.113-0.063
	c0.024-0.01,0.048-0.017,0.074-0.022c0.043,0,0.092,0,0.135-0.012c0.02-0.054,0.076-0.07,0.109-0.11
	c0.074-0.083,0.152-0.161,0.234-0.235c0.029-0.035,0.07-0.057,0.117-0.063c0.019-0.002,0.035-0.011,0.05-0.024
	c0.048-0.043,0.094-0.089,0.14-0.136h0.161c0.054,0.009,0.106-0.013,0.138-0.057c0-0.014,0.031-0.022,0.051-0.024
	c0.046,0.001,0.091-0.021,0.117-0.06c0.01-0.016,0.045-0.022,0.068-0.023c0.066,0.004,0.133,0.004,0.199,0
	c0.036-0.026,0.068-0.055,0.1-0.086c0.026-0.047,0.077-0.076,0.129-0.073c0.026-0.001,0.051-0.018,0.063-0.042
	c0.008-0.019,0.025-0.032,0.047-0.032c0.053,0,0.105,0,0.154,0c0.035-0.05,0.094-0.079,0.154-0.076c0.024,0.004,0.053,0.004,0.078,0
	c0.012,0,0.025-0.005,0.034-0.016c0.041-0.072,0.108-0.062,0.175-0.062c0.172,0,0.344,0,0.514,0h0.158
	c0.033,0.003,0.065-0.013,0.084-0.042c0.015-0.023,0.041-0.037,0.066-0.038c0.032,0,0.066,0,0.098,0
	c0.026-0.002,0.053-0.012,0.072-0.028c0.032-0.033,0.077-0.052,0.124-0.05h0.869c0.034-0.002,0.067-0.002,0.101,0
	c0.021,0,0.039,0.007,0.055,0.02c0.039,0.046,0.101,0.067,0.162,0.056c0.045-0.006,0.09,0.016,0.117,0.056
	c0.016,0.021,0.041,0.032,0.067,0.028h0.317c0.041-0.003,0.078,0.015,0.104,0.048c0.016,0.022,0.04,0.035,0.066,0.034h0.158
	c0.053,0,0.108-0.014,0.154,0.017c0.041,0.032,0.077,0.067,0.109,0.107c0.04,0.032,0.074,0.068,0.107,0.107l0.157,0.016
	c0.011-0.001,0.021-0.001,0.033,0c0.036,0.029,0.067,0.061,0.099,0.097c0.021,0.034,0.059,0.053,0.1,0.054
	c0.033-0.002,0.064,0.015,0.084,0.043c0.02,0.026,0.053,0.041,0.086,0.038c0.095-0.005,0.191-0.005,0.287,0
	c0.099,0.087,0.176,0.183,0.266,0.267c0.029,0.035,0.072,0.056,0.117,0.06c0.033,0.001,0.061,0.028,0.059,0.062
	c0,0.001,0,0.002,0,0.004c-0.004,0.047,0.021,0.091,0.063,0.114c0.03,0.023,0.06,0.05,0.086,0.079c0,0.01,0.012,0.022,0.021,0.032
	c0,0.06,0.01,0.117,0.014,0.167c0.043,0.045,0.078,0.085,0.115,0.119c0.021,0.015,0.035,0.04,0.037,0.066c0,0.08,0,0.159,0,0.236
	c-0.004,0.048,0.018,0.093,0.055,0.122c0.015,0.013,0.023,0.03,0.025,0.05c0,0.052,0,0.105,0,0.157c0,0.051,0,0.091-0.057,0.118
	c-0.012,0-0.02,0.033-0.023,0.051c-0.002,0.026-0.002,0.052,0,0.078c0.008,0.047-0.015,0.094-0.056,0.119
	c-0.015,0.012-0.024,0.03-0.024,0.05c0,0.074,0,0.145,0,0.219c0.008,0.018,0.018,0.035,0.028,0.049l0.038,0.042
	c-0.038,0.048-0.084,0.09-0.072,0.157c0.01,0.066-0.02,0.132-0.074,0.169c-0.03,0.028-0.062,0.057-0.088,0.087
	c0,0.048,0,0.1,0,0.153c0,0.054,0,0.12-0.063,0.154c-0.008,0.031-0.016,0.063-0.028,0.093c-0.007,0.018-0.018,0.032-0.034,0.042
	c0,0-0.024,0-0.035,0c-0.08,0.022-0.086,0.028-0.088,0.108v0.14c0.004,0.04-0.017,0.079-0.051,0.096
	c-0.015,0-0.021,0.033-0.027,0.051c-0.004,0.02-0.008,0.039-0.01,0.059c-0.006,0.02-0.02,0.035-0.039,0.039h-0.02
	c-0.063,0-0.104,0.022-0.1,0.092c0.002,0.035-0.019,0.064-0.049,0.078c-0.02,0.012-0.029,0.043-0.048,0.061
	c-0.058,0.043-0.096,0.109-0.153,0.148c-0.053,0.037-0.086,0.098-0.086,0.164c-0.063,0.063-0.115,0.129-0.18,0.186
	c-0.044,0.027-0.07,0.076-0.07,0.13c-0.002,0.028-0.023,0.05-0.053,0.05c-0.031,0-0.072,0-0.092,0.028
	c-0.023,0.04-0.068,0.063-0.115,0.062c-0.02,0.002-0.037,0.01-0.053,0.024c-0.046,0.06-0.113,0.103-0.162,0.161
	c-0.021,0.031-0.059,0.053-0.096,0.055h-0.12c-0.054-0.008-0.104,0.014-0.138,0.057c-0.014,0.014-0.031,0.022-0.051,0.023
	c-0.053,0-0.104,0-0.16,0c-0.047-0.007-0.092,0.016-0.117,0.055c-0.016,0.021-0.047,0.021-0.071,0.023
	c-0.045-0.004-0.092,0.003-0.136,0.018c-0.037,0.02-0.063,0.063-0.098,0.092c-0.02,0.019-0.035,0.039-0.052,0.061H16.95
	c-0.048-0.003-0.093,0.014-0.124,0.047c-0.02,0.018-0.044,0.025-0.068,0.031c-0.033,0-0.064,0.014-0.087,0.039
	c-0.019,0.029-0.049,0.047-0.083,0.046c-0.047-0.005-0.092,0.003-0.136,0.016c-0.037,0.024-0.07,0.056-0.097,0.093
	c-0.022,0.031-0.06,0.053-0.1,0.055h-0.154c-0.072,0-0.146-0.014-0.199,0.064c0,0.012-0.035,0.014-0.053,0.016
	c-0.02,0.002-0.082,0-0.121,0c-0.019,0.004-0.035,0.016-0.047,0.029c-0.021,0.033-0.062,0.053-0.101,0.047h-0.797
	c-0.019,0.002-0.038,0.002-0.058,0c-0.012,0-0.029,0-0.033-0.021c-0.024-0.05-0.069-0.054-0.115-0.056
	c-0.047-0.004-0.123,0.012-0.153-0.061c-0.024-0.01-0.051-0.017-0.075-0.021c-0.1,0-0.199,0-0.297,0
	c-0.047,0.006-0.094-0.014-0.121-0.049c-0.013-0.016-0.031-0.024-0.052-0.025c-0.038-0.002-0.077-0.002-0.116,0
	c-0.033-0.003-0.063-0.021-0.08-0.051c-0.01-0.018-0.031-0.024-0.047-0.016c-0.009,0.004-0.014,0.01-0.018,0.016
	c-0.016,0.029-0.047,0.048-0.079,0.049c-0.04,0.007-0.081-0.014-0.101-0.049c-0.018-0.033-0.056-0.031-0.088-0.035
	c-0.024-0.004-0.049-0.016-0.064-0.036c-0.057-0.062-0.105-0.133-0.2-0.133c-0.013,0-0.028-0.022-0.043-0.036
	c-0.081-0.075-0.151-0.161-0.237-0.23c-0.024-0.02-0.037-0.055-0.068-0.07c-0.032-0.016-0.026-0.071-0.036-0.106
	c-0.011-0.034-0.032-0.039-0.048-0.06c-0.039-0.038-0.041-0.104,0-0.141v-0.002c0.029-0.023,0.048-0.062,0.048-0.102v-0.08
	c0-0.032-0.015-0.064-0.042-0.083c-0.021-0.017-0.035-0.041-0.036-0.067v-0.135c0.062-0.063,0.114-0.119,0.171-0.17
	c0.059-0.053,0.089-0.076,0.085-0.146c0-0.016,0.017-0.035,0.028-0.049c0.068-0.06,0.128-0.129,0.199-0.199
	c0.035-0.031,0.063-0.062,0.113-0.06c0.051,0.001,0.059-0.052,0.092-0.068c0.037-0.013,0.074-0.023,0.111-0.03
	c0.006-0.003,0.012-0.008,0.016-0.014c0.033-0.032,0.063-0.064,0.095-0.098c0.019-0.021,0.043-0.032,0.069-0.034h0.236
	c0.047,0.003,0.092-0.018,0.119-0.056c0.014-0.015,0.031-0.024,0.05-0.026c0.039-0.003,0.079-0.003,0.117,0
	c0.067,0,0.132,0,0.177-0.064c0-0.012,0.032-0.016,0.053-0.018c0.021-0.001,0.065,0,0.102,0c0.063,0,0.13,0,0.176-0.058
	c0.012-0.016,0.049-0.018,0.075-0.018c0.091,0,0.185,0,0.274,0h0.494l0.043,0.047c0.018,0.019,0.045,0.02,0.063,0.003
	c0.003-0.001,0.003-0.002,0.005-0.003c0.011,0,0.017-0.022,0.024-0.03c0.041-0.036,0.103-0.036,0.142,0
	c0.046,0.038,0.046,0.038,0.108,0c0.061-0.038,0.1-0.04,0.125,0c0.033,0.043,0.086,0.065,0.14,0.06c0.052,0,0.104,0,0.156,0
	c0.053,0,0.045,0.022,0.063,0.042c0.018,0.02,0.045,0.03,0.063,0c0.017-0.028,0.046-0.046,0.079-0.05h0.1
	c0.033,0.001,0.064-0.014,0.083-0.042c0.022-0.026,0.056-0.04,0.088-0.038c0.033,0,0.063-0.017,0.082-0.044
	c0.026-0.032,0.056-0.056,0.079-0.085c0.018-0.021,0.042-0.033,0.068-0.034h0.06l0.017-0.009c0.006-0.005,0.01-0.01,0.012-0.016
	c0.006-0.026,0.011-0.052,0.013-0.078c0-0.038,0.048-0.045,0.06-0.074c0.012-0.031,0.018-0.063,0.021-0.095
	c0-0.038,0.051-0.04,0.064-0.07c0.006-0.012,0.01-0.025,0.012-0.038c0.006-0.078,0.006-0.155,0-0.233
	c-0.109-0.107-0.211-0.215-0.32-0.318c-0.025-0.03-0.063-0.048-0.101-0.05c-0.026,0-0.052-0.013-0.067-0.034
	c-0.018-0.029-0.048-0.046-0.082-0.044h-0.145c-0.018-0.051-0.067-0.083-0.121-0.076c-0.034,0.001-0.066,0.001-0.1,0
	c-0.014,0-0.031,0-0.035-0.016c-0.025-0.06-0.08-0.058-0.131-0.068c-0.017,0-0.031-0.024-0.043-0.034
	c-0.016-0.014-0.031-0.024-0.049-0.032c-0.033-0.002-0.066-0.002-0.1,0h-1.207c-0.027-0.002-0.055-0.002-0.08,0
	c-0.02,0.001-0.036,0.009-0.05,0.024c-0.021,0.034-0.062,0.053-0.103,0.05c-0.025-0.001-0.053,0.011-0.066,0.034
	c-0.014,0.031-0.047,0.049-0.079,0.046H13.99c-0.053-0.009-0.104,0.013-0.139,0.058c0,0.014-0.029,0.02-0.049,0.021
	c-0.054,0-0.104,0-0.158,0c-0.055,0-0.092,0-0.117,0.054c0,0.012-0.034,0.018-0.055,0.022c-0.025,0.002-0.052,0.002-0.078,0
	c-0.047,0-0.09,0-0.115,0.058c-0.014,0.013-0.031,0.021-0.053,0.021c-0.053,0-0.104,0-0.153,0c-0.04,0.054-0.087,0.102-0.142,0.142
	c-0.022,0.018-0.064,0-0.094,0.024c-0.021,0.013-0.042,0.031-0.059,0.051c-0.014,0.014-0.036,0.014-0.051,0
	c-0.017-0.009-0.025-0.028-0.043-0.04c-0.016-0.012-0.029,0-0.033,0c-0.024,0.04-0.068,0.064-0.115,0.064
	c-0.034-0.001-0.064,0.019-0.078,0.05c-0.014,0.022-0.039,0.036-0.065,0.036c-0.04-0.002-0.079,0.016-0.102,0.05
	c-0.017,0.02-0.043,0.031-0.069,0.029c-0.041,0-0.077,0.022-0.096,0.058c-0.018,0.026-0.052,0.04-0.07,0.068
	c-0.019,0.027-0.05,0.043-0.084,0.043c-0.033-0.001-0.065,0.014-0.085,0.04c-0.02,0.023-0.054,0.038-0.072,0.063
	c-0.023,0.04-0.067,0.064-0.113,0.062c-0.026,0.004-0.049,0.018-0.064,0.04c-0.058,0.058-0.111,0.127-0.199,0.127
	c0,0-0.018,0.016-0.026,0.026c-0.008,0.01,0,0.012,0,0.018c-0.004,0.04-0.004,0.079,0,0.118c0,0.06-0.054,0.069-0.072,0.109
	c-0.002,0.013-0.002,0.025,0,0.038c0.001,0.04-0.017,0.079-0.047,0.104c-0.041,0.034-0.078,0.071-0.113,0.111
	c0,0.072,0,0.145,0,0.217c0,0.034-0.018,0.064-0.048,0.08c-0.012,0.01-0.021,0.022-0.03,0.034c0,0.042,0,0.087,0,0.134
	c0,0.032-0.02,0.063-0.048,0.079c-0.021,0.017-0.034,0.041-0.035,0.067c0.001,0.033-0.013,0.066-0.039,0.088
	c-0.021,0.018-0.035,0.041-0.038,0.066c0,0.021,0,0.041,0,0.059v0.516c-0.002,0.014-0.002,0.026,0,0.041c0,0.018,0,0.043,0.02,0.055
	c0.043,0.031,0.064,0.086,0.056,0.139c-0.009,0.055,0.014,0.105,0.057,0.139c0.014,0,0.02,0.031,0.024,0.051
	c0,0.053-0.01,0.109,0.018,0.153c0.032,0.041,0.068,0.079,0.107,0.114c0.02,0.025,0.042,0.05,0.066,0.07
	c0.026,0.021,0.046,0.047,0.069,0.065c0.024,0.021,0.078,0.067,0.072,0.127c-0.001,0.028,0.015,0.054,0.04,0.065
	c0.011,0.007,0.02,0.016,0.026,0.025c0.013,0.059,0.013,0.119,0,0.178c0,0.041-0.054,0.054-0.078,0.086
	c-0.034,0.039-0.071,0.074-0.11,0.109c-0.031,0.021-0.05,0.059-0.051,0.098c0.001,0.027-0.011,0.054-0.032,0.07
	c-0.029,0.018-0.047,0.047-0.048,0.08c0.001,0.041-0.017,0.076-0.048,0.1c-0.07,0.06-0.129,0.127-0.199,0.201
	c0,0.049,0,0.094,0,0.141c0,0.027-0.012,0.053-0.034,0.066c-0.029,0.018-0.048,0.047-0.049,0.08c0,0.026,0,0.055,0,0.08
	c0.002,0.039-0.017,0.078-0.05,0.102c-0.022,0.017-0.034,0.041-0.034,0.068V16.4c-0.002,0.035,0.016,0.066,0.045,0.084
	c0.023,0.017,0.036,0.041,0.034,0.068c0,0.098,0,0.198,0,0.297c0.004,0.053,0.001,0.105-0.01,0.156
	c-0.016,0.055-0.073,0.088-0.111,0.133c-0.024,0.021-0.039,0.051-0.044,0.082c0,0.021-0.005,0.039-0.016,0.057
	c-0.029,0.035-0.061,0.066-0.094,0.098c-0.012,0.008-0.024,0.012-0.038,0.014L10.463,17.4c-0.03,0.033-0.024,0.068-0.032,0.1
	c-0.003,0.025-0.024,0.047-0.051,0.05l-0.096,0.022c-0.032,0.066-0.092,0.064-0.152,0.064c-0.026,0-0.06,0-0.071,0
	c-0.071,0.074-0.159,0.133-0.257,0.164c-0.004,0.01-0.014,0.018-0.02,0.029c-0.015,0.029-0.048,0.049-0.082,0.044
	c-0.033,0.005-0.065-0.009-0.085-0.035c-0.011-0.019-0.026-0.03-0.044-0.039c-0.04-0.013-0.094,0-0.121-0.047
	c-0.028-0.048-0.084-0.03-0.125-0.044c0,0-0.026-0.012-0.03-0.021s-0.062-0.049-0.08-0.084c-0.018-0.035-0.057-0.058-0.097-0.055
	c-0.034,0-0.064-0.018-0.082-0.045c-0.02-0.023-0.052-0.042-0.07-0.068c-0.021-0.033-0.06-0.052-0.1-0.049
	c-0.026,0-0.052-0.013-0.07-0.031L8.68,17.229H8.634c-0.039,0-0.075-0.021-0.099-0.051c-0.11-0.125-0.239-0.234-0.351-0.359
	c-0.024-0.024-0.048-0.045-0.048-0.078c0-0.041-0.021-0.077-0.056-0.098c-0.039-0.035-0.075-0.072-0.108-0.113
	c-0.043-0.045-0.102-0.082-0.096-0.159c0-0.015-0.018-0.033-0.032-0.046c-0.04-0.033-0.077-0.07-0.111-0.11
	c-0.03-0.045-0.078-0.069-0.107-0.112c-0.033-0.041-0.07-0.076-0.111-0.106c-0.038-0.035-0.058-0.089-0.112-0.108
	c-0.016-0.054-0.071-0.07-0.105-0.111c-0.032-0.041-0.068-0.076-0.108-0.108c-0.044-0.03-0.066-0.078-0.112-0.106
	c-0.045-0.031-0.077-0.092-0.124-0.125c-0.046-0.035-0.129,0-0.199-0.033L6.703,15.34h-0.05c-0.072,0-0.147,0.014-0.199-0.063
	c0,0-0.03,0-0.034,0c-0.033,0.043-0.086,0.064-0.139,0.06H5.924c-0.046-0.004-0.091,0.017-0.119,0.054
	c-0.017,0.021-0.043,0.031-0.07,0.028H5.596c-0.047,0-0.091,0-0.118,0.056c0,0.016-0.031,0.022-0.052,0.024
	c-0.02,0.001-0.078,0-0.117,0c-0.04,0-0.044,0-0.052,0.021c-0.025,0.039-0.071,0.063-0.118,0.057
	c-0.027,0.002-0.05,0.018-0.063,0.04c-0.014,0.022-0.039,0.036-0.066,0.036H4.93c-0.052,0-0.109-0.014-0.155,0.018
	c-0.04,0.032-0.077,0.066-0.109,0.107c-0.021,0.015-0.04,0.031-0.058,0.05c-0.012,0.015-0.021,0.032-0.024,0.052
	c-0.006,0.027-0.01,0.055-0.012,0.083c-0.024,0.009-0.048,0.015-0.074,0.019c-0.054,0-0.105,0-0.159,0
	c-0.033-0.002-0.065,0.014-0.084,0.041c-0.011,0.017-0.028,0.026-0.048,0.031c-0.053,0-0.105,0.012-0.135,0.065
	c0,0.014-0.034,0.021-0.051,0.021c-0.041,0-0.078,0.021-0.102,0.053c-0.021,0.025-0.053,0.041-0.086,0.041
	c-0.025,0.006-0.049,0.017-0.069,0.033C3.736,16.277,3.71,16.3,3.69,16.324c-0.021,0.043-0.063,0.068-0.11,0.068
	c-0.027-0.002-0.053,0.012-0.068,0.035c-0.015,0.029-0.046,0.049-0.079,0.047h-0.06c-0.053-0.011-0.107,0.018-0.131,0.066
	c-0.042,0-0.052,0.059-0.086,0.08c-0.034,0.021-0.089,0.012-0.133,0.016H2.97c-0.039,0.026-0.073,0.059-0.104,0.094
	c-0.034,0.054-0.082,0.057-0.134,0.065c-0.018,0-0.032,0.022-0.046,0.034c-0.068,0.068-0.134,0.139-0.199,0.197
	c-0.025,0.021-0.041,0.053-0.042,0.084c0,0.021,0,0.039,0,0.057c-0.04,0.038-0.08,0.072-0.115,0.107l-0.25,0.013
	c-0.062,0.062-0.132,0.108-0.132,0.198c-0.001,0.015-0.009,0.025-0.02,0.033c-0.077,0.061-0.125,0.147-0.199,0.199
	c-0.016,0.037-0.055,0.059-0.096,0.053c-0.026-0.004-0.052,0.01-0.067,0.029c-0.019,0.038-0.057,0.059-0.098,0.055
	c-0.036,0-0.056,0.021-0.082,0.047c-0.047,0.035-0.077,0.09-0.08,0.147c0,0.017-0.02,0.032-0.032,0.048
	c-0.063,0.072-0.06,0.106,0,0.18c0.06,0.074,0.12,0.103,0.118,0.199c0.004,0.021,0.017,0.037,0.034,0.045
	c0.028,0.018,0.044,0.051,0.042,0.084C1.47,18.645,1.49,18.68,1.524,18.7c0.049,0.038,0.083,0.101,0.133,0.14
	c0.034,0.021,0.055,0.057,0.056,0.096c0,0.025,0,0.055,0.03,0.068c0.03,0.014,0.052,0.07,0.056,0.119
	C1.8,19.15,1.82,19.173,1.847,19.18c0.053,0.002,0.103,0.025,0.137,0.064c0.023,0.025,0.062,0.031,0.092,0.014
	c0.057-0.047,0.126-0.076,0.199-0.087c0.01,0,0.018-0.019,0.028-0.028l0.124-0.129h0.199c0.04,0.002,0.079-0.017,0.102-0.051
	c0.034-0.047,0.103-0.012,0.142-0.059c0-0.012,0-0.021,0-0.036s0-0.078,0.047-0.103c0.048-0.023,0.034-0.037,0.056-0.054
	c0.015-0.013,0.033-0.021,0.052-0.021c0.046,0,0.09-0.023,0.115-0.063c0-0.016,0.034-0.02,0.051-0.021
	c0.053,0.002,0.105-0.004,0.155-0.019c0.146-0.155,0.303-0.3,0.448-0.454c0.022-0.015,0.047-0.025,0.074-0.027
	c0.027-0.002,0.051-0.012,0.07-0.029c0.036-0.037,0.072-0.075,0.11-0.111c0.038-0.027,0.089-0.027,0.127,0
	C4.214,18,4.249,18.039,4.287,18.076L4.3,18.09c0.019,0.008,0.04,0,0.049-0.02c0.016-0.047,0-0.108,0.066-0.133
	c0.028-0.054,0.084-0.086,0.144-0.082c0.013,0,0.026-0.006,0.034-0.018c0.018-0.037,0.055-0.061,0.095-0.059l0.136-0.012
	c0.031-0.033,0.064-0.063,0.1-0.093c0.038-0.034,0.072-0.077,0.11-0.112c0.013-0.014,0.031-0.021,0.049-0.024
	c0.039-0.001,0.079-0.001,0.117,0c0.027,0.001,0.053-0.015,0.066-0.037c0.02-0.026,0.053-0.041,0.086-0.038
	c0.045,0.002,0.091-0.005,0.136-0.018c0.037-0.02,0.063-0.063,0.095-0.094l0.012-0.017c0.012-0.024,0.037-0.039,0.064-0.038
	c0.054,0,0.105,0,0.159,0c0.046-0.007,0.093,0.016,0.119,0.055c0.019,0.019,0.043,0.029,0.07,0.031
	c0.025,0.001,0.05,0.01,0.07,0.025c0.049,0.052,0.101,0.101,0.157,0.146c0.03,0.025,0.042,0.064,0.08,0.086
	c0.013,0.014,0.021,0.031,0.022,0.051c0.007,0.024,0.012,0.052,0.014,0.078l0.058,0.019l0.157,0.015c0,0.008,0,0.014,0,0.02
	c0.022,0.041,0.074,0.054,0.095,0.097c0.022,0.041,0.044,0.028,0.058,0.052c0.03,0.045,0.08,0.07,0.134,0.069
	c0.026,0.004,0.046,0.024,0.049,0.052c0,0.025,0,0.051,0.014,0.079l0.042,0.042c0.036,0.049,0.091,0.079,0.151,0.081
	c0.019,0.004,0.036,0.017,0.046,0.032c0.018,0.027,0.049,0.046,0.082,0.047c0.086,0,0.114,0.078,0.161,0.126
	c0.017,0.015,0,0.051,0.014,0.076c0.004,0.021,0.02,0.034,0.04,0.038c0.026-0.002,0.053,0.004,0.078,0.014
	c0.024,0.02,0.046,0.042,0.065,0.064c0.042,0.031,0.081,0.064,0.116,0.103c0.03,0.038,0.069,0.063,0.094,0.101
	c0.021,0.035,0.059,0.056,0.099,0.053c0.026,0,0.052,0.01,0.07,0.029c0.04,0.043,0.082,0.084,0.125,0.129
	c0.066-0.002,0.127,0.029,0.166,0.084c0.034,0.057,0.095,0.092,0.161,0.096c0.014,0,0.034,0.016,0.047,0.027
	c0.021,0.018,0.039,0.037,0.054,0.059c0.014,0.013,0.023,0.029,0.026,0.05c-0.002,0.054,0.028,0.103,0.076,0.125
	c0.018,0.054,0.062,0.062,0.109,0.065c0.02,0,0.038,0.009,0.052,0.021c0.052,0.064,0.125,0.111,0.181,0.188c0,0.078,0,0.162,0,0.244
	l0.158,0.168c0,0.065,0,0.14,0,0.211c0,0.027-0.013,0.054-0.036,0.068c-0.03,0.016-0.047,0.047-0.046,0.082v0.059
	C9.039,20.7,9.06,20.746,9.1,20.771c0.023,0.014,0.028,0.043,0.03,0.07c0,0.061,0,0.117,0,0.178c0,0.025,0.012,0.051,0.034,0.066
	c0.033,0.021,0.052,0.063,0.047,0.102v0.119c-0.007,0.055,0.015,0.106,0.059,0.139c0.016,0,0.016,0.048,0.021,0.072
	c0.006,0.022,0,0.045,0.022,0.053c0.067,0.035,0.06,0.095,0.062,0.154c-0.004,0.031,0.003,0.064,0.02,0.092
	c0.012,0,0.026,0.016,0.038,0.014c0.091-0.016,0.109,0.081,0.171,0.113c0,0,0.012,0.022,0.012,0.035
	c-0.001,0.047,0.022,0.09,0.062,0.115c0.036,0.034,0.068,0.07,0.098,0.109c0,0.023,0,0.035,0,0.051c0,0.264-0.028,0.238,0.247,0.242
	c0.013-0.002,0.027-0.002,0.04,0c0.017,0.007,0.032,0.018,0.045,0.029c0.042,0.043,0.078,0.09,0.121,0.127
	c0.027,0.019,0.044,0.048,0.046,0.08c-0.002,0.041,0.02,0.078,0.056,0.099c0.026,0.013,0.04,0.052,0.066,0.067
	c0.026,0.021,0.042,0.051,0.043,0.082c0.016,0.07,0.028,0.08,0.087,0.082h0.2c0.045,0.041,0.079,0.094,0.149,0.088
	c0.028,0,0.048,0.017,0.066,0.037c0.06,0.062,0.115,0.125,0.175,0.185s0.131,0.121,0.199,0.188h0.323
	c0.042,0.035,0.061,0.084,0.117,0.078c0.032,0,0.064,0.014,0.083,0.041c0.026,0.029,0.06,0.051,0.085,0.082
	c0.02,0.025,0.051,0.039,0.084,0.038c0.08,0,0.159,0,0.237,0c0.026,0.003,0.051,0.011,0.076,0.021
	c0.026,0.061,0.08,0.061,0.134,0.063c0.052-0.009,0.105,0.012,0.139,0.055c0.018,0.025,0.057,0.023,0.092,0.023h0.713
	c0.045-0.001,0.09,0.003,0.136,0.012c0.022,0,0.036,0.041,0.06,0.051c0.029,0.012,0.063,0.02,0.094,0.02H14.3h0.04
	c0.025-0.004,0.049-0.02,0.063-0.04c0.023-0.028,0.041-0.028,0.064,0s0.027,0.032,0.042,0.036c0.017,0.004,0.046-0.02,0.063-0.04
	c0.014-0.013,0.031-0.021,0.051-0.024c0.046,0,0.093,0,0.137,0h0.715c0.045,0,0.092,0,0.123,0l0.158-0.147
	c0.064-0.001,0.125-0.032,0.161-0.087c0.128-0.01,0.261,0,0.397,0c0.062,0,0.119,0,0.179,0c0.019-0.004,0.034-0.016,0.047-0.028
	c0.021-0.026,0.051-0.044,0.085-0.045h0.132c0.031-0.043,0.081-0.071,0.134-0.078c0.021-0.004,0.039-0.012,0.053-0.024
	c0.05-0.051,0.102-0.101,0.156-0.146c0.018-0.019,0.027-0.048,0.049-0.062c0.039-0.021,0.063-0.066,0.061-0.114
	c0.002-0.026,0.016-0.05,0.038-0.063c0.048-0.043,0.093-0.092,0.136-0.142c0.012-0.015,0.028-0.024,0.047-0.024
	c0.041,0,0.08,0,0.12,0c0.027,0,0.052-0.013,0.067-0.035c0.02-0.026,0.051-0.043,0.083-0.043c0.021,0,0.04-0.006,0.057-0.017
	c0.035-0.028,0.068-0.06,0.101-0.093c0.008-0.012,0.012-0.023,0.012-0.037c0-0.079,0.063-0.111,0.099-0.16
	c0.013-0.018,0.048-0.02,0.072-0.021c0.032-0.004,0.062-0.021,0.082-0.047c0.044-0.049,0.089-0.094,0.078-0.168
	c-0.005-0.033-0.005-0.064,0-0.099c-0.005-0.047,0.019-0.09,0.06-0.112c0.03-0.025,0.047-0.063,0.079-0.086
	c0.013-0.017,0.021-0.033,0.021-0.053c0-0.04,0-0.08,0-0.119c0.002-0.021,0.013-0.037,0.027-0.051
	c0.033-0.021,0.053-0.061,0.049-0.1c-0.006-0.039-0.006-0.08,0-0.119c0.03-0.041,0.065-0.077,0.106-0.109
	c0.034-0.021,0.054-0.061,0.05-0.1c0-0.053,0-0.105,0-0.157c0-0.021,0-0.046,0.018-0.056c0.078-0.06,0.061-0.139,0.063-0.217V20.2
	c0-0.065,0-0.132,0-0.199c0.046-0.039,0.076-0.095,0.085-0.155c0.007-0.025,0.022-0.047,0.044-0.063
	c0.03-0.023,0.059-0.051,0.086-0.077h0.199c0.045,0.001,0.092-0.005,0.137-0.015c0.034-0.012,0.041-0.066,0.086-0.078
	c0.026-0.066,0.082-0.072,0.145-0.072h0.277c0.049,0,0.076-0.018,0.076-0.072s0.063-0.095,0.094-0.146
	c0.031-0.049,0.06-0.024,0.09-0.028c0.025-0.005,0.05-0.019,0.066-0.038c0.102-0.1,0.197-0.197,0.303-0.301
	c0.014-0.014,0.021-0.032,0.021-0.053v-0.118c0.002-0.024,0.017-0.05,0.036-0.063c0.063-0.055,0.123-0.113,0.18-0.175
	c0.032-0.03,0.064-0.063,0.096-0.099c0.029-0.045,0.013-0.104,0.021-0.154c0-0.014,0-0.023,0-0.033l0.239-0.25v-0.111
	c0-0.069-0.016-0.146,0.063-0.198c0.014,0,0.02-0.037,0.02-0.054c0-0.086,0-0.172,0-0.258c0-0.033,0.015-0.066,0.042-0.086
	c0.021-0.017,0.032-0.041,0.032-0.068c0-0.039,0.019-0.075,0.051-0.098c0.017-0.014,0.025-0.029,0.029-0.049
	c0-0.054,0-0.105,0-0.158v-1.052c-0.006-0.065-0.002-0.133,0.013-0.198c0.017-0.012,0.032-0.023,0.046-0.037
	c0,0,0.018-0.025,0.013-0.033c-0.006-0.008-0.026-0.026-0.038-0.041c-0.013-0.014-0.021-0.031-0.025-0.049c0-0.055,0-0.105,0-0.16
	c0-0.198,0-0.397,0-0.598c-0.002-0.055-0.03-0.104-0.077-0.132c0-0.049,0-0.104-0.011-0.153c-0.004-0.021-0.014-0.037-0.027-0.052
	c-0.032-0.022-0.051-0.062-0.049-0.101c0-0.026,0-0.053,0-0.08c0-0.033-0.016-0.064-0.045-0.081
	c-0.021-0.017-0.033-0.04-0.033-0.065c0-0.035,0-0.068,0-0.101c-0.002-0.033-0.02-0.063-0.047-0.084
	c-0.016-0.013-0.026-0.028-0.029-0.048c-0.003-0.039-0.003-0.078,0-0.117c0-0.092,0-0.186,0-0.275
	c0.059-0.07,0.12-0.137,0.186-0.201c0.033-0.039,0.07-0.074,0.11-0.105c0.017-0.014,0.024-0.031,0.024-0.053
	c-0.002-0.047,0.021-0.088,0.063-0.113c0.037-0.033,0.071-0.07,0.1-0.113c0-0.023,0-0.043,0-0.064c0-0.057,0-0.119,0.062-0.153
	c0.013,0,0.019-0.035,0.019-0.053c0.004-0.052,0.004-0.104,0-0.158c-0.004-0.046,0.017-0.092,0.057-0.117
	c0.014-0.014,0.021-0.032,0.023-0.052c0-0.04,0-0.079,0-0.119c0.002-0.019,0.01-0.038,0.021-0.052
	c0.039-0.027,0.06-0.073,0.056-0.12c0-0.06,0-0.119,0.059-0.155c0.015,0,0.021-0.036,0.021-0.054c0-0.065,0-0.131,0-0.199
	c0-0.119,0-0.237,0-0.354l0.074-0.078c0-0.028,0-0.062,0-0.094c0-0.105,0-0.211,0-0.316c0-0.311,0-0.62,0-0.93
	c0.007-0.046-0.017-0.093-0.056-0.115"/>
</svg>
